<?xml version="1.0" encoding="UTF-8" standalone="no" ?>
<!DOCTYPE svg PUBLIC "-//W3C//DTD SVG 1.1//EN" "http://www.w3.org/Graphics/SVG/1.1/DTD/svg11.dtd">
<svg xmlns="http://www.w3.org/2000/svg" xmlns:xlink="http://www.w3.org/1999/xlink" version="1.1" width="1104" height="717" viewBox="0 0 1104 717" xml:space="preserve">
<desc>Created with Fabric.js 4.6.0</desc>
<defs>
</defs>
<g transform="matrix(1 0 0 1 683.34 116.02)" id="QOy4smubUFE_mVpqalaL6"  >
<path style="stroke: rgb(0,0,0); stroke-width: 1; stroke-dasharray: none; stroke-linecap: round; stroke-dashoffset: 0; stroke-linejoin: round; stroke-miterlimit: 10; fill: none; fill-rule: nonzero; opacity: 1;" vector-effect="non-scaling-stroke"  transform=" translate(-683.34, -116.02)" d="M 683.3400981697172 116.02412645590687 L 683.3420981697171 116.02412645590687" stroke-linecap="round" />
</g>
<g transform="matrix(1 0 0 1 595.17 44.38)" id="z9ZVYRiKw4LuJ7RaswB8h"  >
<path style="stroke: rgb(0,0,0); stroke-width: 1; stroke-dasharray: none; stroke-linecap: round; stroke-dashoffset: 0; stroke-linejoin: round; stroke-miterlimit: 10; fill: none; fill-rule: nonzero; opacity: 1;" vector-effect="non-scaling-stroke"  transform=" translate(-595.17, -44.38)" d="M 595.1670532445924 44.383527454242994 L 595.1690532445923 44.383527454242994" stroke-linecap="round" />
</g>
<g transform="matrix(2.74 0 0 2.74 552 358.5)" id="VDsVO2emoOapKCnEjzmMo"  >
<path style="stroke: none; stroke-width: 1; stroke-dasharray: none; stroke-linecap: butt; stroke-dashoffset: 0; stroke-linejoin: miter; stroke-miterlimit: 4; fill: rgb(5,5,5); fill-rule: evenodd; opacity: 1;" vector-effect="non-scaling-stroke"  transform=" translate(-200.09, -131.99)" d="M 57.55 69.46 C 26.576 72.664 3.113 96.937 0.957 128.004 C -1.64 165.436 29.785 196.938 67.347 194.553 C 82.559 193.588 95.661 187.801 107.385 176.87 C 110.86 173.631 126.276 155.406 125.907 154.974 C 125.72 154.757 123.13 151.739 120.151 148.267 C 117.172 144.796 114.454 141.629 114.112 141.229 C 112.417 139.249 111.794 138.603 111.64 138.667 C 111.548 138.706 109.643 140.863 107.407 143.461 C 92.17 161.163 91.71 161.658 87.748 164.636 C 64.823 181.868 31.372 170.086 24.135 142.232 C 15.906 110.562 46.643 82.566 77.413 93.704 C 85.31 96.563 89.999 100.2 98.298 109.901 C 113.572 127.757 123.634 139.496 123.759 139.604 C 123.838 139.672 125.569 141.668 127.607 144.04 C 134.157 151.664 136.2 154.037 139.355 157.686 C 143.295 162.244 142.7 161.553 148.409 168.193 C 163.703 185.98 177.094 193.324 196.494 194.566 C 217.397 195.903 235.155 187.716 250.747 169.554 C 252.559 167.444 255.621 163.88 257.553 161.634 C 265.208 152.732 279.155 136.475 280.361 135.049 C 281.063 134.219 284.349 130.406 287.663 126.577 C 290.977 122.748 296.652 116.176 300.275 111.973 C 309.747 100.986 313.02 98.131 319.698 95.031 C 346.563 82.56 377.435 102.212 377.468 131.807 C 377.502 162.02 345.801 181.898 318.936 168.511 C 311.522 164.817 310.284 163.617 292.349 142.76 C 290.388 140.48 288.697 138.614 288.591 138.614 C 288.485 138.614 286.135 141.251 283.37 144.474 C 280.604 147.698 277.379 151.454 276.202 152.822 L 274.063 155.309 L 276.077 157.667 C 277.184 158.964 279.205 161.31 280.568 162.881 C 281.93 164.452 284.325 167.237 285.89 169.069 C 298.62 183.975 310.509 191.183 326.875 193.917 C 337.492 195.69 351.474 194.129 360.396 190.173 C 385.254 179.151 399.365 158.065 399.37 131.931 C 399.374 109.466 388.267 89.683 369.183 78.17 C 349.539 66.318 324.276 66.303 304.644 78.13 C 297.497 82.435 293.13 86.437 284.189 96.875 C 277.29 104.929 265.138 119.077 260.883 124.01 C 248.929 137.868 245.622 141.687 239.975 148.158 C 236.436 152.213 232.963 156.223 232.259 157.068 C 219.436 172.452 199.379 177.042 182.302 168.5 C 176.172 165.434 172.588 162.369 165.467 154.106 C 163.835 152.212 161.498 149.517 160.272 148.117 C 150.211 136.621 139.79 124.521 118.275 99.351 C 103.077 81.572 95.857 76.207 81.064 71.706 C 75.051 69.876 63.858 68.807 57.55 69.46 M 194.431 69.46 C 182.033 70.704 170.491 75.334 161.262 82.765 C 156.145 86.886 154.72 88.369 145.156 99.525 C 137.723 108.196 137.5 108.462 137.5 108.696 C 137.5 108.954 151.745 125.5 151.952 125.482 C 152.036 125.475 153.83 123.456 155.941 120.994 C 165.157 110.242 168.228 106.689 169.851 104.898 C 185.55 87.579 211.683 86.593 228.301 102.693 C 229.231 103.594 234.128 109.109 239.184 114.949 L 248.375 125.566 L 249.447 124.355 C 252.042 121.422 262.754 108.892 262.81 108.723 C 262.885 108.497 247.629 90.624 245.466 88.404 C 240.086 82.883 232.16 77.377 225.435 74.489 C 221.712 72.891 219.874 72.276 214.723 70.91 C 210.277 69.731 199.444 68.957 194.431 69.46" stroke-linecap="round" />
</g>
<g transform="matrix(2.74 0 0 2.74 549.53 385.95)" id="HRYYjVMYjievZAZkIJfXz"  >
<path style="stroke: none; stroke-width: 1; stroke-dasharray: none; stroke-linecap: butt; stroke-dashoffset: 0; stroke-linejoin: miter; stroke-miterlimit: 4; fill: rgb(125,124,124); fill-rule: evenodd; opacity: 1;" vector-effect="non-scaling-stroke"  transform=" translate(-200.16, -139.97)" d="M 307.534 103.775 L 306.807 104.579 L 307.611 103.852 C 308.361 103.175 308.53 102.97 308.338 102.97 C 308.296 102.97 307.934 103.332 307.534 103.775 M 399.586 130.074 C 399.587 131.027 399.632 131.387 399.686 130.873 C 399.739 130.36 399.738 129.58 399.684 129.141 C 399.629 128.701 399.585 129.121 399.586 130.074 M 0.59 131.931 C 0.59 133.632 0.63 134.329 0.678 133.478 C 0.727 132.627 0.727 131.235 0.678 130.384 C 0.63 129.533 0.59 130.229 0.59 131.931 M 399.586 133.787 C 399.587 134.74 399.632 135.1 399.686 134.586 C 399.739 134.073 399.738 133.293 399.684 132.853 C 399.629 132.414 399.585 132.834 399.586 133.787 M 154.94 175.804 C 155.547 176.451 156.076 176.98 156.116 176.98 C 156.302 176.98 156.105 176.758 155.012 175.732 L 153.837 174.629 L 154.94 175.804" stroke-linecap="round" />
</g>
</svg>