<?xml version="1.0" encoding="UTF-8" standalone="no" ?>
<!DOCTYPE svg PUBLIC "-//W3C//DTD SVG 1.1//EN" "http://www.w3.org/Graphics/SVG/1.1/DTD/svg11.dtd">
<svg xmlns="http://www.w3.org/2000/svg" xmlns:xlink="http://www.w3.org/1999/xlink" version="1.1" width="200" height="200" viewBox="0 0 200 200" xml:space="preserve">
<desc>Created with Fabric.js 4.6.0</desc>
<defs>
</defs>
<g transform="matrix(0.89 0 0 0.89 100 100)" id="Z8FwgQ7J7Zj9Cunb21gIB"  >
<path style="stroke: none; stroke-width: 1; stroke-dasharray: none; stroke-linecap: butt; stroke-dashoffset: 0; stroke-linejoin: miter; stroke-miterlimit: 4; fill: rgb(255,255,255); fill-rule: evenodd; opacity: 1;" vector-effect="non-scaling-stroke"  transform=" translate(0, 0)" d="M -71.66714 -64.75727 C -84.6524 -63.408550000000005 -95.68223 -54.12368000000001 -98.91107 -41.821940000000005 C -98.94874999999999 -41.67888000000001 -99.04321999999999 -41.328320000000005 -99.12185 -41.042190000000005 C -99.25726999999999 -40.545840000000005 -99.37630999999999 -39.967580000000005 -99.60401999999999 -38.70186 C -100.13314999999999 -35.75488 -100.13314999999999 -31.040370000000003 -99.60401999999999 -28.092840000000002 C -99.37630999999999 -26.82766 -99.25726999999999 -26.248860000000004 -99.12185 -25.75306 C -99.04321999999999 -25.46693 -98.94874999999999 -25.115830000000003 -98.91107 -24.97277 C -96.2676 -14.90324 -87.9555 -6.34515 -77.85561 -3.29552 C -77.36962 -3.14864 -76.8312 -2.98482 -76.65974 -2.93186 C -70.11305 -0.9016799999999998 -61.06705 -1.8659899999999998 -54.29702 -5.315329999999999 C -50.303700000000006 -7.35042 -47.410680000000006 -9.66836 -44.106480000000005 -13.480269999999999 C -39.48082000000001 -18.81617 -37.08690000000001 -21.59989 -37.085260000000005 -21.64466 C -37.08308 -21.701449999999998 -43.82580000000001 -29.57153 -44.168730000000004 -29.913349999999998 L -44.37787 -30.121389999999998 L -44.87533 -29.549139999999998 C -45.32528 -29.03204 -49.8734 -23.757839999999998 -52.66758 -20.512169999999998 C -57.74264 -14.618209999999998 -64.98447 -11.933879999999997 -72.18698 -13.276589999999999 C -86.53357000000001 -15.95164 -93.59301 -32.25749 -85.70083000000001 -44.49098 C -80.52311000000002 -52.51668 -71.04736000000001 -55.72467 -61.63004000000001 -52.64063 C -60.23159000000001 -52.182500000000005 -57.84750000000001 -50.89712 -56.44303000000001 -49.84272 C -54.360910000000004 -48.28105 -54.53838000000001 -48.47544 -43.83455000000001 -35.99787 C -40.37527000000001 -31.96482 -36.49553000000001 -27.447969999999998 -35.21284000000001 -25.9611 C -33.93070000000001 -24.473689999999998 -32.31709000000001 -22.601309999999998 -31.62797000000001 -21.800819999999998 C -30.93884000000001 -20.999779999999998 -30.328350000000007 -20.29375 -30.271020000000007 -20.231499999999997 C -30.213680000000007 -20.1698 -28.76281000000001 -18.484719999999996 -27.046550000000007 -16.487299999999998 C -21.145850000000006 -9.619749999999998 -18.167100000000005 -7.082849999999997 -13.478100000000007 -4.929809999999998 C -12.932040000000006 -4.678629999999998 -12.390900000000007 -4.430179999999998 -12.276770000000006 -4.377219999999998 C -7.6642200000000065 -2.242749999999998 -0.5965900000000062 -1.3641699999999979 4.780999999999995 -2.2569499999999976 C 6.702029999999995 -2.5758399999999977 6.922089999999995 -2.6195199999999974 7.920289999999995 -2.8788899999999975 C 14.511759999999995 -4.590729999999997 19.912819999999996 -8.078829999999996 24.819149999999993 -13.792049999999996 C 25.359199999999994 -14.421089999999996 26.524489999999993 -15.772539999999996 27.408559999999994 -16.794729999999994 C 28.292629999999996 -17.816919999999993 29.858179999999994 -19.646149999999995 30.888039999999993 -20.859449999999995 C 31.91735999999999 -22.073299999999996 33.60249999999999 -24.043409999999994 34.63235999999999 -25.238149999999997 C 37.21029999999999 -28.229359999999996 39.94440999999999 -31.403489999999998 43.90005999999999 -35.99787 C 45.74736999999999 -38.14272 47.974749999999986 -40.72166 48.85007999999999 -41.72856 C 49.72540999999999 -42.73546 50.93328999999999 -44.13824 51.53395999999999 -44.8459 C 54.29700999999999 -48.10139 55.68126999999999 -49.37257 58.08829999999999 -50.86545 C 59.04881999999999 -51.461180000000006 61.00588999999999 -52.43095 61.24724999999999 -52.43095 C 61.332979999999985 -52.43095 61.428539999999984 -52.471900000000005 61.45966999999999 -52.52268 C 61.490799999999986 -52.57292 61.62184999999999 -52.63789 61.75180999999999 -52.66738 C 61.881229999999995 -52.696870000000004 62.45512999999999 -52.862860000000005 63.02739999999999 -53.03705 C 73.73778999999999 -56.292 85.55776 -49.60246 88.39562 -38.68001 C 89.03123 -36.234300000000005 89.27041 -32.224180000000004 88.89089 -30.381290000000003 C 88.81444 -30.009440000000005 88.67902 -29.354190000000003 88.59000999999999 -28.925000000000004 C 85.66422999999999 -14.779830000000004 68.26626999999999 -8.232810000000004 56.63522999999999 -16.900100000000002 C 54.65248999999999 -18.37768 53.98575999999999 -19.08208 48.249959999999994 -25.75687 C 45.450869999999995 -29.01455 44.52092999999999 -30.06895 44.4494 -30.06895 C 44.37077 -30.06895 43.47141 -29.052220000000002 40.76842 -25.90867 C 39.85814 -24.85044 38.67866 -23.48425 38.14734 -22.87214 C 37.61548 -22.26003 37.18027 -21.728730000000002 37.18027 -21.6916 C 37.18027 -21.62171 39.68231 -18.69657 44.470150000000004 -13.167910000000001 C 47.86008 -9.253350000000001 51.66883000000001 -6.449430000000001 56.47469 -4.330800000000002 C 61.2456 -2.226910000000002 67.69346 -1.405120000000002 73.16823 -2.2028800000000017 C 74.06703999999999 -2.333930000000002 76.663 -2.8854300000000017 77.27677 -3.076000000000002 C 77.50557 -3.146990000000002 77.90364 -3.267660000000002 78.16084 -3.343560000000002 C 87.14949999999999 -6.000050000000002 95.50036999999999 -14.086360000000003 98.38409999999999 -22.925650000000005 C 99.04154999999999 -24.939990000000005 99.47294 -26.613610000000005 99.69026999999998 -27.989080000000005 C 99.75797999999999 -28.418270000000003 99.85626999999998 -28.993790000000004 99.90814999999998 -29.268450000000005 C 100.03428999999998 -29.929700000000004 100.03046999999998 -36.8464 99.90432999999997 -37.56662000000001 C 99.44290999999997 -40.19690000000001 99.21246999999997 -41.23546000000001 98.78708999999998 -42.60220000000001 C 92.56311999999998 -62.609660000000005 69.27209999999998 -71.16884000000002 51.66717999999998 -59.917130000000014 C 48.49949999999998 -57.89241000000001 46.50747999999998 -56.012940000000015 42.18978999999998 -50.97463000000001 C 37.57177999999998 -45.58631000000001 35.04188999999998 -42.639870000000016 34.107039999999984 -41.56199000000001 C 33.808889999999984 -41.219080000000005 32.661079999999984 -39.88510000000001 31.555309999999984 -38.59808000000001 C 26.894699999999986 -33.17262000000001 23.191879999999983 -28.885120000000008 21.715889999999984 -27.205500000000008 C 21.211329999999982 -26.632160000000006 19.582989999999985 -24.75979000000001 18.097159999999985 -23.045220000000008 C 16.611339999999984 -21.331200000000006 14.903269999999985 -19.44026000000001 14.300959999999986 -18.843440000000008 C 6.483049999999985 -11.089670000000009 -5.920120000000015 -10.994660000000009 -14.032360000000015 -18.626120000000007 C -14.428800000000015 -18.999070000000007 -15.951210000000014 -20.681960000000007 -17.415740000000014 -22.36595000000001 C -18.879720000000013 -24.04994000000001 -20.392850000000013 -25.781430000000007 -20.778370000000013 -26.21444000000001 C -21.777110000000015 -27.335460000000012 -24.718180000000014 -30.728010000000012 -28.042580000000015 -34.59343000000001 C -29.616870000000016 -36.42430000000001 -31.952900000000014 -39.13867000000001 -33.23286000000002 -40.626080000000016 C -34.513370000000016 -42.11349000000001 -36.031950000000016 -43.884850000000014 -36.60805000000002 -44.56303000000002 C -46.82807000000002 -56.59066000000002 -48.02449000000002 -57.79195000000002 -52.47541000000002 -60.49048000000002 C -58.03592000000002 -63.86228000000002 -65.11993000000001 -65.43706000000002 -71.66717000000001 -64.75724000000002 M -3.01999 -64.75072 C -4.24534 -64.61749 -5.8382000000000005 -64.37559 -6.66001 -64.19758 C -7.016039999999999 -64.12059 -7.55118 -63.979710000000004 -9.46839 -63.4566 C -14.68598 -62.03307 -20.21864 -58.23209 -24.76239 -52.949690000000004 C -30.133960000000002 -46.703540000000004 -31.46689 -45.14022000000001 -31.46689 -45.08343000000001 C -31.46689 -45.047940000000004 -30.91537 -44.38177000000001 -30.24154 -43.60257000000001 C -29.567700000000002 -42.823370000000004 -28.13157 -41.156310000000005 -27.05092 -39.897690000000004 C -25.969720000000002 -38.639610000000005 -24.87815 -37.37662 -24.62424 -37.091590000000004 L -24.16337 -36.57394 L -23.94058 -36.8415 C -23.818260000000002 -36.98893 -23.15644 -37.757760000000005 -22.47005 -38.550610000000006 C -20.60963 -40.698190000000004 -19.28435 -42.23584 -17.89736 -43.85430000000001 C -17.21315 -44.65316000000001 -16.62832 -45.32970000000001 -16.5972 -45.35809000000001 C -16.56662 -45.38703000000001 -16.26247 -45.73813000000001 -15.92173 -46.13838000000001 C -9.37395 -53.83427000000001 0.6025400000000012 -56.016250000000014 9.23244 -51.63919000000001 C 12.77199 -49.84381000000001 13.436 -49.19020000000001 22.71407 -38.370410000000014 C 23.53916 -37.408830000000016 24.24085 -36.624170000000014 24.27416 -36.62745000000001 C 24.30802 -36.63073000000001 24.52262 -36.85788000000001 24.75141 -37.13199000000001 C 24.98021 -37.40610000000001 26.57142 -39.26100000000001 28.28768 -41.25350000000001 C 30.00394 -43.24600000000001 31.44444 -44.93654000000001 31.489220000000003 -45.00971000000001 C 31.543280000000003 -45.09871000000001 30.630820000000003 -46.23448000000001 28.732720000000004 -48.440480000000015 C 27.172090000000004 -50.25443000000001 25.356990000000003 -52.37361000000001 24.698990000000002 -53.15008000000002 C 19.459020000000002 -59.33562000000002 12.752330000000002 -63.251820000000016 5.353240000000003 -64.44711000000001 C 2.465680000000003 -64.91397 -0.5245299999999968 -65.02209 -3.020019999999997 -64.75071000000001 M -3.43554 13.67267 C -5.23316 13.91893 -5.8960799999999995 14.08548 -7.4026499999999995 14.66865 C -17.955219999999997 18.75358 -18.69896 34.197779999999995 -8.58432 39.21097 C -5.133229999999999 40.921710000000004 -0.34975999999999985 41.12866 3.2946299999999997 39.72534 C 14.7553 35.311150000000005 14.45387 17.812200000000004 2.8566899999999995 14.313170000000003 C 1.0017299999999996 13.753480000000003 -1.88091 13.460260000000003 -3.4355400000000005 13.672660000000002 M -75.30771 14.25857 C -76.88363 14.38962 -77.0682 14.444220000000001 -77.10916 14.796420000000001 C -77.16049 15.234340000000001 -76.98029 15.355570000000002 -76.16120000000001 15.432010000000002 C -74.71360000000001 15.567970000000003 -74.17573 15.845360000000001 -73.90161 16.59671 C -73.78282 16.922890000000002 -73.69865 26.72436 -73.71862 32.6708 C -73.72647 35.00651 -73.75038 36.74745 -73.79458 37.08577 C -73.97914999999999 38.49565 -74.84192 39.17765 -76.4648 39.19622 C -76.86178 39.20059 -77.04963 39.40535 -77.0054 39.78485 L -76.97153999999999 40.07043 L -71.90902999999999 40.078070000000004 L -66.84651999999998 40.085170000000005 L -66.80392999999998 39.79468000000001 C -66.73949999999998 39.35676000000001 -66.91477999999998 39.22898000000001 -67.66287999999997 39.16892000000001 C -69.32343999999998 39.03569000000001 -70.06553999999997 38.63107000000001 -70.37678999999997 37.689150000000005 C -70.52094999999997 37.252860000000005 -70.65909999999997 16.765980000000006 -70.52312999999997 16.027190000000004 C -70.41282999999997 15.430370000000005 -70.01201999999996 15.278570000000004 -68.54694999999997 15.280210000000004 C -64.33028999999996 15.284030000000003 -62.076159999999966 17.559930000000005 -62.109469999999966 21.778630000000003 C -62.13731999999997 25.320790000000002 -63.71815999999997 27.166410000000003 -67.55857999999996 28.142180000000003 C -67.87201999999996 28.2219 -67.92279999999997 28.277600000000003 -67.92279999999997 28.542970000000004 C -67.92279999999997 28.921380000000003 -67.49905999999997 28.984720000000003 -66.15957999999996 28.804520000000004 C -61.17515999999996 28.135070000000002 -58.57482999999996 25.638030000000004 -58.57209999999996 21.518710000000006 C -58.57045999999996 17.936690000000006 -60.496959999999966 15.603460000000005 -64.28550999999996 14.599290000000007 C -65.97446999999995 14.151540000000008 -71.84021999999996 13.970250000000007 -75.30768999999997 14.258560000000006 M -44.98838 14.25202 C -47.26872 14.39836 -47.42598 14.4344 -47.46366 14.82099 C -47.506249999999994 15.25345 -47.3397 15.35993 -46.491679999999995 15.44129 C -45.395199999999996 15.54668 -44.92448999999999 15.78912 -44.645999999999994 16.39195 L -44.416109999999996 16.89048 L -44.416109999999996 27.23903 L -44.416109999999996 37.58758 L -44.64109 38.074650000000005 C -44.95289 38.749010000000006 -45.92323 39.185840000000006 -47.133849999999995 39.196220000000004 C -47.631859999999996 39.200590000000005 -47.825709999999994 39.378600000000006 -47.7782 39.78813 L -47.74434 40.07699 L -42.83473 40.08027 L -37.92512 40.084089999999996 L -37.8656 39.847649999999994 C -37.766220000000004 39.45067999999999 -37.977000000000004 39.20005 -38.4133 39.196769999999994 C -38.96318 39.19239999999999 -40.173249999999996 38.84293999999999 -40.43153 38.61359999999999 C -41.06277 38.05335999999999 -41.08516 37.87644999999999 -41.120110000000004 33.11606999999999 L -41.152330000000006 28.748839999999994 L -40.92681 28.565919999999995 C -40.623200000000004 28.320199999999996 -38.58258 28.303819999999995 -37.90984 28.541349999999994 C -36.965160000000004 28.874429999999993 -36.865230000000004 29.002749999999995 -33.5927 34.10003999999999 C -30.41956 39.04279999999999 -28.45538 40.44283999999999 -24.65427 40.46959999999999 C -22.71959 40.48324999999999 -21.93927 40.00764999999999 -23.43165 39.724799999999995 C -25.71308 39.292339999999996 -28.432450000000003 36.305499999999995 -32.54318 29.716979999999992 C -33.9329 27.489139999999992 -33.94873 27.432889999999993 -33.26125 27.117279999999994 C -30.242639999999998 25.732519999999994 -28.569519999999997 23.130639999999993 -28.807599999999997 20.193489999999994 C -29.062609999999996 17.048299999999994 -31.016949999999998 15.115319999999993 -34.691379999999995 14.373789999999993 C -35.64151999999999 14.182129999999992 -42.613589999999995 14.099679999999992 -44.9884 14.252019999999993 M 20.21534 14.42456 C 20.053710000000002 14.84938 20.25193 15.02084 21.1289 15.21359 C 23.15314 15.65807 23.161330000000003 15.66735 27.89401 22.465 C 31.51601 27.66658 31.393150000000002 27.47492 31.2965 27.78889 C 31.104290000000002 28.4152 25.659000000000002 35.775819999999996 24.312960000000004 37.229929999999996 C 23.223570000000002 38.406099999999995 21.988940000000003 39.064629999999994 20.664750000000005 39.17438 C 19.957060000000006 39.23335 19.738090000000007 39.41682 19.849490000000007 39.85966 L 19.905730000000005 40.08408 L 24.179180000000006 40.08408 L 28.452630000000006 40.08408 L 28.515430000000006 39.83399 C 28.624100000000006 39.40153 28.432980000000004 39.25792 27.652660000000004 39.1842 C 26.360140000000005 39.06189 26.069640000000003 38.844559999999994 26.305530000000005 38.176759999999994 C 26.531600000000005 37.535709999999995 28.401300000000006 34.44949 29.781740000000006 32.439519999999995 C 31.430290000000007 30.038039999999995 32.11450000000001 29.110859999999995 32.23791000000001 29.110859999999995 C 32.45633000000001 29.110859999999995 37.94968000000001 36.802929999999996 38.529590000000006 37.920669999999994 C 38.972440000000006 38.773579999999995 38.67593000000001 39.03294999999999 37.087450000000004 39.18037999999999 C 36.25253000000001 39.25791999999999 36.06195 39.393879999999996 36.1728 39.83398999999999 L 36.235600000000005 40.08407999999999 L 41.341240000000006 40.08407999999999 L 46.44688000000001 40.08407999999999 L 46.509130000000006 39.83398999999999 C 46.6238 39.376949999999994 46.43650000000001 39.257369999999995 45.490730000000006 39.18310999999999 C 43.353460000000005 39.014379999999996 42.839620000000004 38.56007999999999 39.567640000000004 33.94548999999999 C 38.391980000000004 32.28770999999999 36.74452 29.967039999999994 35.906870000000005 28.78813999999999 C 33.87062 25.923069999999992 33.851510000000005 26.53571999999999 36.076690000000006 23.442949999999993 C 41.00432000000001 16.594509999999993 42.343250000000005 15.228319999999993 44.26265000000001 15.089629999999993 C 44.972530000000006 15.038299999999992 45.16801000000001 14.879399999999993 45.02495000000001 14.471509999999993 L 44.928300000000014 14.197399999999993 L 40.88419000000002 14.191939999999994 C 36.859740000000016 14.185929999999994 36.840080000000015 14.187029999999993 36.73961000000002 14.407079999999993 C 36.59381000000002 14.727059999999993 36.805680000000024 15.069969999999994 37.14970000000002 15.069969999999994 C 38.495190000000015 15.069969999999994 39.258580000000016 15.466939999999994 39.07510000000002 16.070319999999995 C 38.88780000000002 16.687349999999995 33.78762000000002 24.681369999999994 33.44742000000002 24.891599999999997 C 33.25029000000002 25.013909999999996 32.11231000000002 23.466979999999996 29.053840000000022 18.918469999999996 C 26.622790000000023 15.303139999999996 26.610780000000023 15.082539999999996 28.83596000000002 15.072709999999995 C 29.31813000000002 15.070529999999996 29.39622000000002 15.039949999999996 29.479220000000023 14.820989999999995 C 29.732590000000023 14.155909999999995 29.948830000000022 14.186489999999996 24.890150000000023 14.183759999999994 L 20.307630000000024 14.181579999999995 L 20.215350000000026 14.424569999999996 M 53.12626 14.43603 C 53.02087 14.85539 53.21636 15.007190000000001 54.092240000000004 15.185740000000001 C 55.848910000000004 15.544490000000001 56.28248000000001 15.97859 57.721340000000005 18.81418 C 58.05498000000001 19.47216 58.54807 20.43319 58.817280000000004 20.9492 C 60.596880000000006 24.36741 62.70139 28.556630000000002 62.94603000000001 29.1682 L 63.235440000000004 29.89116 L 63.234350000000006 33.73965 C 63.23326000000001 38.83967 63.160630000000005 38.989279999999994 60.60071000000001 39.16947 C 59.629270000000005 39.23773 59.35788000000001 39.47416 59.68224000000001 39.968869999999995 C 59.82312000000001 40.184009999999994 59.866260000000004 40.18783 61.27127000000001 40.103739999999995 C 62.06524000000001 40.056779999999996 64.43458000000001 40.043679999999995 66.53582 40.075889999999994 L 70.35659 40.133219999999994 L 70.42594 39.85856 C 70.55044 39.36166 70.37898 39.25792 69.30924999999999 39.18584 C 66.62974 39.005649999999996 66.56366999999999 38.86641 66.56366999999999 33.37543 C 66.56366999999999 29.12341 66.56038999999998 29.15181 67.21511999999998 27.76432 C 67.49305999999999 27.175140000000003 67.62793999999998 26.9327 68.92373999999998 24.69066 C 69.35348999999998 23.94695 70.32546999999998 22.262420000000002 71.08394999999999 20.946460000000002 C 73.65424999999999 16.48804 74.52247999999999 15.483870000000003 76.03450999999998 15.224500000000003 C 77.16484999999999 15.031200000000002 77.23965999999999 14.989160000000002 77.20470999999998 14.571440000000003 L 77.17303999999997 14.188120000000003 L 73.34134999999998 14.184840000000003 C 69.17164999999997 14.181020000000004 69.18802999999998 14.178830000000003 69.37314999999998 14.762000000000002 C 69.44085999999999 14.974960000000003 69.46815999999998 14.984240000000002 70.58211999999997 15.177540000000002 C 71.30618999999997 15.303130000000003 71.92104999999998 15.599630000000003 71.91941999999997 15.822410000000001 C 71.91559999999997 16.35425 65.92478999999997 27.448150000000002 65.64302999999997 27.445970000000003 C 65.49831999999996 27.44488 65.36835999999997 27.211170000000003 63.820289999999964 24.170820000000003 C 62.11385999999997 20.818680000000004 60.53465999999997 17.540250000000004 60.21575999999997 16.68898 C 59.792559999999966 15.557580000000002 59.920889999999964 15.39268 61.418179999999964 15.142050000000001 L 62.19521999999996 15.011550000000002 L 62.19521999999996 14.605300000000002 L 62.19521999999996 14.19959 L 57.69241999999996 14.192490000000001 L 53.18907999999996 14.18594 L 53.12627999999996 14.43603 M -0.73146 14.90781 C 4.6291899999999995 15.87157 7.77886 20.75535 7.79087 28.12308 C 7.79524 30.61139 7.7592 30.926450000000003 7.27157 32.665040000000005 C 4.9737599999999995 40.856190000000005 -5.35493 42.0471 -9.7649 34.628600000000006 C -11.77712 31.243700000000004 -12.495190000000001 25.943830000000005 -11.456040000000002 22.142840000000007 C -11.126220000000002 20.935550000000006 -11.045950000000001 20.71440000000001 -10.644050000000002 19.906260000000007 C -8.756330000000002 16.114560000000008 -4.883140000000002 14.161370000000007 -0.731460000000002 14.907810000000007 M -36.76147 15.47515 C -33.800200000000004 16.232509999999998 -32.34714 18.20808 -32.35423 21.4663 C -32.36187 24.7895 -33.772890000000004 26.68863 -36.563250000000004 27.13256 C -37.627520000000004 27.30129 -40.73350000000001 27.23958 -40.968300000000006 27.0441 C -41.221120000000006 26.83387 -41.231500000000004 16.079610000000002 -40.979220000000005 15.71923 C -40.643390000000004 15.23981 -38.22872 15.100019999999999 -36.76147 15.47515 M 11.48987 55.20066 C 8.75084 56.10763 7.41136 58.91974 8.3757 61.7384 C 9.47874 64.96276999999999 13.799700000000001 66.00243 16.18488 63.61732 L 16.71346 63.08875 L 16.31156 62.84576 C 15.79335 62.53179 15.6896 62.538889999999995 15.37944 62.90746 C 14.588750000000001 63.8472 12.70649 64.15571 11.437990000000001 63.55343 C 8.684220000000002 62.24621 8.585930000000001 57.77905 11.281270000000001 56.41341 C 12.69119 55.69864 14.178650000000001 55.89795 15.35323 56.9589 L 15.77479 57.34004 L 16.14775 57.13637 C 16.668689999999998 56.85188 16.66596 56.74704 16.120449999999998 56.20155 C 15.04854 55.130219999999994 13.024849999999997 54.69229 11.48988 55.20066 M -47.64441 55.24162 C -47.67226 55.3137 -47.68263 57.47929 -47.66789 60.053329999999995 L -47.64059 64.73398999999999 L -47.3419 64.76783999999999 C -47.17754 64.78640999999999 -46.932900000000004 64.77439 -46.798030000000004 64.74054 L -46.55285000000001 64.67884 L -46.52445000000001 62.52197999999999 L -46.49660000000001 60.365669999999994 L -44.026230000000005 60.337819999999994 L -41.55586 60.30942999999999 L -41.55586 59.84365999999999 L -41.55586 59.37733999999999 L -43.887530000000005 59.37733999999999 C -46.855360000000005 59.37733999999999 -46.54847000000001 59.570089999999986 -46.54847000000001 57.70372999999999 L -46.54847000000001 56.15679999999999 L -43.97435000000001 56.12894999999999 L -41.39969000000001 56.10109999999999 L -41.39969000000001 55.63313999999999 L -41.39969000000001 55.16517999999999 L -44.496930000000006 55.13732999999999 C -46.918150000000004 55.116029999999995 -47.605090000000004 55.13841999999999 -47.64441000000001 55.24161999999999 M -36.7216 55.23725 C -36.75 55.31206 -36.76146 57.479290000000006 -36.74672 60.05332 L -36.71942000000001 64.73398 L -36.19903000000001 64.73398 L -35.67918000000001 64.73398 L -35.67918000000001 59.949580000000005 L -35.67918000000001 55.16518000000001 L -36.17445000000001 55.13351000000001 C -36.509730000000005 55.11167000000001 -36.686110000000006 55.145520000000005 -36.72160000000001 55.237260000000006 M -30.37914 55.24325 C -30.40644 55.314780000000006 -30.41682 57.47928 -30.40153 60.05332 L -30.37477 64.73398 L -29.854380000000003 64.73398 L -29.33453 64.73398 L -29.30723 61.01545 C -29.28539 58.07175 -29.25208 57.29746 -29.14614 57.29746 C -29.072969999999998 57.29746 -27.79847 58.9607 -26.31428 60.993610000000004 C -23.53921 64.79514 -23.50481 64.83282 -22.82224 64.76729 L -22.47003 64.73398 L -22.47003 59.949580000000005 L -22.47003 55.16518000000001 L -22.989880000000003 55.16518000000001 L -23.509730000000005 55.16518000000001 L -23.537030000000005 58.83948000000001 C -23.568700000000003 63.06092000000001 -23.494980000000005 62.87089000000001 -24.548330000000004 61.43317000000001 C -27.592060000000004 57.27780000000001 -28.944100000000002 55.45621000000001 -29.100270000000002 55.29732000000001 C -29.31924 55.07617000000001 -30.29887 55.03413000000001 -30.379140000000003 55.243260000000014 M -14.40148 55.347 C -14.82194 56.42215 -15.30903 57.63382 -16.58735 60.78119 C -18.35003 65.12057 -18.26211 64.73398 -17.48616 64.73398 L -16.8713 64.73398 L -16.444830000000003 63.69377 L -16.018360000000005 62.65356 L -13.580760000000005 62.65356 L -11.143160000000005 62.65356 L -10.742900000000006 63.638619999999996 C -10.286400000000006 64.76128 -10.266190000000005 64.78202999999999 -9.604370000000007 64.78421 C -9.100360000000007 64.78585 -8.909240000000006 64.66135 -9.081790000000007 64.44293 C -9.136400000000007 64.37413000000001 -9.274550000000007 64.06016000000001 -9.389220000000007 63.74564 C -9.965860000000006 62.16212 -12.792250000000006 55.25908 -12.891090000000007 55.19247 C -13.189240000000007 54.99207 -14.307560000000008 55.10674 -14.401490000000008 55.347 M -4.66635 55.18264 C -4.70457 55.22032 -4.7357000000000005 57.37281 -4.7357000000000005 59.96486 L -4.7357000000000005 64.67773 L -4.488340000000001 64.73998 C -4.3523700000000005 64.77383 -4.106650000000001 64.78639 -3.942280000000001 64.76783 L -3.643590000000001 64.73398 L -3.616290000000001 60.963570000000004 C -3.5999100000000013 58.6702 -3.5507600000000012 57.193160000000006 -3.490150000000001 57.193160000000006 C -3.436090000000001 57.193160000000006 -3.205650000000001 57.462360000000004 -2.977950000000001 57.791070000000005 C -2.750790000000001 58.12033 -2.0474700000000015 59.091190000000005 -1.4156800000000012 59.94957000000001 C -0.7833400000000011 60.80740000000001 0.2541699999999989 62.22383000000001 0.8897799999999989 63.09640000000001 C 2.070359999999999 64.71596000000001 2.2106899999999987 64.83718 2.818459999999999 64.76783 L 3.117149999999999 64.73398 L 3.117149999999999 59.949580000000005 L 3.117149999999999 55.16518000000001 L 2.6486299999999994 55.16518000000001 L 2.1806599999999996 55.16518000000001 L 2.1533599999999997 58.83129000000001 C 2.13589 61.16015000000001 2.08838 62.49740000000001 2.0233999999999996 62.49740000000001 C 1.9294799999999996 62.49740000000001 0.7920399999999996 60.99634000000001 -2.239680000000001 56.873730000000016 C -2.8403400000000008 56.05685000000002 -3.393500000000001 55.32680000000001 -3.4694000000000007 55.250900000000016 C -3.609740000000001 55.11002000000001 -4.54077 55.057060000000014 -4.666360000000001 55.18264000000001 M 21.26541 55.15916 C 21.264319999999998 55.19083 21.26268 57.35806 21.26213 59.975229999999996 L 21.26049 64.73397 L 21.7574 64.73397 L 22.25486 64.73397 L 22.25486 59.94957 L 22.25486 55.16517 L 21.76068 55.133500000000005 C 21.48929 55.11603 21.26595 55.12749 21.26541 55.15916000000001 M 30.4228 55.31533 C 30.36055 55.43164 29.813399999999998 56.75578 29.20673 58.257940000000005 C 26.31699 65.4127 26.48463 64.82189000000001 27.35832 64.76619000000001 C 27.9224 64.73015000000001 27.92185 64.73015000000001 28.50177 63.30389000000001 L 28.78681 62.60168000000001 L 31.16107 62.60168000000001 C 33.89628 62.60168000000001 33.62106 62.49083000000001 34.10705 63.78932000000001 C 34.25503 64.18520000000001 34.42813 64.57125 34.49093 64.64770000000001 C 34.634 64.81970000000001 35.72448 64.83936000000001 35.72448 64.66954000000001 C 35.72448 64.58108000000001 33.3322 58.54078000000001 32.49564 56.51716000000001 C 32.42465 56.34570000000001 32.3007 56.04156000000001 32.22043 55.84116000000001 C 31.95013 55.16789000000001 31.94849 55.16680000000001 31.221140000000002 55.13458000000001 C 30.62102 55.107820000000004 30.522190000000002 55.130210000000005 30.422800000000002 55.31532000000001 M 39.93459 55.23725 C 39.90619 55.31206 39.89473 57.479290000000006 39.90947 60.05332 L 39.936769999999996 64.73398 L 42.69327 64.73398 L 45.44923 64.73398 L 45.4809 64.242 L 45.51257 63.750020000000006 L 43.29667 63.721630000000005 L 41.08077 63.693780000000004 L 41.028890000000004 59.429210000000005 L 40.97701000000001 55.16518000000001 L 40.48174000000001 55.13351000000001 C 40.14646000000001 55.11167000000001 39.97008000000001 55.145520000000005 39.93459000000001 55.237260000000006 M -13.30718 56.91632 C -13.2695 57.04027 -12.86979 58.072829999999996 -12.41929 59.21133 C -11.96934 60.349819999999994 -11.60075 61.344159999999995 -11.60075 61.42115 C -11.60075 61.53418 -11.988999999999999 61.561479999999996 -13.576929999999999 61.561479999999996 C -15.14139 61.561479999999996 -15.553109999999998 61.533089999999994 -15.553109999999998 61.42442 C -15.553109999999998 61.34907 -15.163219999999999 60.28429 -14.686519999999998 59.05843 C -14.209809999999997 57.832570000000004 -13.788249999999998 56.74213 -13.749479999999998 56.63565 C -13.663199999999998 56.40085 -13.419109999999998 56.55647 -13.30717 56.916309999999996 M 32.28977 59.01639 C 32.805249999999994 60.33071 33.227349999999994 61.44081 33.227349999999994 61.4834 C 33.22789999999999 61.526540000000004 32.30996999999999 61.56148 31.187819999999995 61.56148 C 29.292999999999996 61.56148 29.151569999999996 61.54838 29.201809999999995 61.379650000000005 C 29.280439999999995 61.11755000000001 31.043119999999995 56.65422 31.113009999999996 56.54173 C 31.224409999999995 56.36099 31.356549999999995 56.63893 32.28977 59.01638" stroke-linecap="round" />
</g>
</svg>